<svg width="420" height="21" viewBox="0 0 420 21" fill="none" xmlns="http://www.w3.org/2000/svg">
<g clip-path="url(#clip0_3088_4789)">
<path d="M5.23871 10.5906C4.67331 11.0549 3.90474 11.2214 3.03015 11.2214H1.9877V14.3228H0V5.92969H3.03015C3.90474 5.92969 4.67331 6.09615 5.23871 6.56049C5.8041 7.02482 6.12213 7.66439 6.12213 8.56678C6.12213 9.47793 5.8041 10.1175 5.23871 10.5906ZM3.70155 7.68191C3.45419 7.51545 3.17149 7.45412 2.74745 7.45412H1.97887V9.70572H2.74745C3.18033 9.70572 3.46302 9.64439 3.70155 9.47793C3.93124 9.31147 4.10792 9.00483 4.10792 8.57554C4.10792 8.14625 3.94007 7.85713 3.70155 7.68191Z" fill="#505050"/>
<path d="M16.5722 5.92188C14.1958 5.92188 12.3848 7.50763 12.3848 10.1447C12.3848 12.7818 14.1958 14.3501 16.5722 14.3501C18.9486 14.3501 20.7596 12.7818 20.7596 10.1447C20.7685 7.50763 18.9486 5.92188 16.5722 5.92188ZM16.5722 12.6416C15.2382 12.6416 14.2841 11.7042 14.2841 10.1447C14.2841 8.58525 15.2382 7.55144 16.5722 7.55144C17.9062 7.55144 18.8603 8.58525 18.8603 10.1447C18.8603 11.7042 17.9062 12.6416 16.5722 12.6416Z" fill="#505050"/>
<path d="M32.2895 10.5906C31.7241 11.0549 30.9555 11.2214 30.0809 11.2214H29.0385V14.3228H27.0508V5.92969H30.0809C30.9555 5.92969 31.7241 6.09615 32.2895 6.56049C32.8549 7.02482 33.1729 7.66439 33.1729 8.56678C33.1729 9.47793 32.8549 10.1175 32.2895 10.5906ZM30.7523 7.68191C30.505 7.51545 30.2223 7.45412 29.7982 7.45412H29.0297V9.70572H29.7982C30.2311 9.70572 30.5138 9.64439 30.7523 9.47793C30.982 9.31147 31.1587 9.00483 31.1587 8.57554C31.1587 8.14625 30.9909 7.85713 30.7523 7.68191Z" fill="#505050"/>
<path d="M44.4611 13.6461C43.8692 14.1104 43.1006 14.3207 42.2172 14.3207C41.0157 14.3207 39.9468 13.6987 39.2754 13.0854L40.2383 11.6836C40.8391 12.3056 41.7666 12.7174 42.4027 12.7174C43.0299 12.7174 43.507 12.4195 43.507 11.8764C43.507 11.3156 42.8974 11.1054 42.5352 10.974C42.173 10.8425 41.5546 10.6323 41.2719 10.5096C41.0687 10.4132 40.6447 10.2555 40.2913 9.91387C39.9291 9.58094 39.6464 9.10785 39.6464 8.32811C39.6464 7.53961 40.0263 6.92633 40.5122 6.53208C40.9804 6.13783 41.7401 5.875 42.6942 5.875C43.6572 5.875 44.7615 6.33058 45.3268 6.88253L44.4964 8.23174C44.0194 7.75864 43.2685 7.39943 42.6501 7.39943C42.0228 7.39943 41.5723 7.63598 41.5723 8.13536C41.5723 8.63475 42.0405 8.82749 42.4115 8.96767C42.7738 9.10785 43.3833 9.32687 43.6483 9.43201C43.878 9.51962 44.4258 9.72988 44.7968 10.0978C45.1413 10.4395 45.4417 10.9389 45.4417 11.6836C45.4329 12.4721 45.0618 13.1818 44.4611 13.6461Z" fill="#505050"/>
<path d="M58.6073 10.7404C58.6073 11.9144 58.4041 12.7204 57.8034 13.3599C57.2203 13.9907 56.3104 14.3499 55.0913 14.3499C53.8633 14.3499 52.9622 13.9907 52.3615 13.3599C51.7784 12.7204 51.5664 11.9144 51.5664 10.7404V5.88672H53.5541V10.7404C53.5541 11.3274 53.5983 11.7917 53.881 12.1246C54.146 12.44 54.5347 12.6415 55.0824 12.6415C55.6302 12.6415 56.0189 12.44 56.2839 12.1246C56.5666 11.7829 56.6108 11.3274 56.6108 10.7404V5.88672H58.5985V10.7404H58.6073Z" fill="#505050"/>
<path d="M72.6883 12.9345C72.273 13.3025 71.2836 14.3363 69.0132 14.3363C66.7251 14.3363 64.7109 12.8382 64.7109 10.1047C64.7109 7.37125 66.7251 5.89062 69.0309 5.89062C71.2218 5.89062 72.167 7.02957 72.4321 7.31868L71.1511 8.42258C70.8066 8.04586 70.1528 7.48515 69.0309 7.48515C67.7057 7.48515 66.6721 8.44887 66.6721 10.1135C66.6721 11.7781 67.7234 12.7418 69.0662 12.7418C70.409 12.7418 70.7889 12.2161 70.7889 12.2161V10.9983H69.0485V9.53524H72.6794V12.9345H72.6883Z" fill="#505050"/>
<path d="M87.2375 14.3325H85.0819L84.4812 12.6416H81.4599L80.8592 14.3325H78.8008L81.9899 5.92188H84.0483L87.2375 14.3325ZM84.0218 11.1084L82.9705 8.09463L81.9193 11.1084H84.0218Z" fill="#505050"/>
<path d="M100.048 14.3316H97.7422L95.9665 11.1163H95.3393V14.3316H93.3516V5.92969H96.3905C97.3358 5.92969 98.0691 6.12243 98.6256 6.52544C99.191 6.93721 99.562 7.61182 99.562 8.44412C99.562 10.0386 98.5284 10.6607 97.91 10.8534L100.048 14.3316ZM97.1238 7.67315C96.8764 7.48916 96.5584 7.45412 96.1079 7.45412H95.3216V9.60935H96.1079C96.5584 9.60935 96.8764 9.55678 97.1238 9.38156C97.38 9.19758 97.5567 8.96979 97.5567 8.53173C97.5567 8.10244 97.3888 7.85713 97.1238 7.67315Z" fill="#505050"/>
<path d="M104.747 14.3399C105.591 14.3399 106.275 13.6613 106.275 12.8243C106.275 11.9872 105.591 11.3086 104.747 11.3086C103.903 11.3086 103.219 11.9872 103.219 12.8243C103.219 13.6613 103.903 14.3399 104.747 14.3399Z" fill="#505050"/>
</g>
<g clip-path="url(#clip1_3088_4789)">
<path d="M147.915 16.7937L149.214 3.87446C149.287 3.21193 149.41 3.10151 149.63 3.10151H149.753V2.36537H147.645V3.10151H147.78C148.074 3.10151 148.221 3.31008 148.184 3.87446L147.437 11.6039L146.579 3.87446C146.505 3.27328 146.652 3.10151 146.983 3.10151H147.02V2.36537H144.079V3.10151H144.226C144.508 3.10151 144.508 3.21193 144.557 3.87446L144.778 5.84977L144.091 12.107L143.319 3.88673C143.221 3.2242 143.356 3.11378 143.65 3.11378H143.687V2.37764H140.709V3.11378H140.856C141.162 3.11378 141.187 3.2242 141.26 3.88673L142.584 16.806H144.496L145.243 10.1685L146.015 16.806C146.015 16.7937 147.915 16.7937 147.915 16.7937ZM160.574 8.3281C160.574 7.43247 160.574 7.11347 161.137 7.11347C161.53 7.11347 161.53 7.2607 161.53 8.00911V15.714C161.53 15.9962 161.432 16.0453 161.284 16.0453H161.199V16.7814H164.164V16.0453H164.029C163.833 16.0453 163.772 15.9717 163.772 15.6772V7.60423C163.772 6.27918 163.49 5.76389 162.191 5.76389C161.432 5.76389 160.892 6.00926 160.537 6.83129C160.39 6.09515 159.998 5.76389 158.993 5.76389C158.16 5.76389 157.718 6.02153 157.4 6.83129V5.76389L154.863 5.97246V6.7086H154.973C155.145 6.7086 155.267 6.83129 155.267 7.24843V15.6282C155.267 15.9594 155.194 16.0576 154.973 16.0576H154.863V16.7937H157.694V16.0576H157.584C157.437 16.0576 157.4 15.9962 157.4 15.7754V8.3281C157.4 7.43247 157.375 7.11347 157.951 7.11347C158.343 7.11347 158.343 7.2607 158.343 8.00911V15.714C158.343 15.9962 158.258 16.0453 158.123 16.0453H158V16.7814H160.905V16.0453H160.856C160.659 16.0453 160.574 15.9717 160.574 15.6772V8.3281ZM181.259 16.7937H184.813V16.0576H184.568C184.262 16.0576 184.164 15.9226 184.164 15.2846V9.72677H186.039V15.2846C186.039 15.9226 185.953 16.0576 185.647 16.0576H185.365V16.7937H188.894V16.0576H188.6C188.281 16.0576 188.232 15.9226 188.232 15.2846V3.87446C188.232 3.21193 188.281 3.10151 188.6 3.10151H188.894V2.36537H185.365V3.10151H185.647C185.941 3.10151 186.039 3.21193 186.039 3.87446V8.85567H184.164V3.87446C184.164 3.21193 184.25 3.10151 184.568 3.10151H184.813V2.36537H181.259V3.10151H181.578C181.872 3.10151 181.97 3.21193 181.97 3.87446V15.6527C181.97 15.9717 181.884 16.0576 181.578 16.0576H181.259V16.7937ZM208.06 16.7937H210.867V16.0576H210.781C210.597 16.0576 210.572 15.9962 210.572 15.7754V8.3281C210.572 7.43247 210.597 7.11347 211.161 7.11347C211.577 7.11347 211.577 7.2607 211.577 8.00911V15.714C211.577 15.9962 211.504 16.0453 211.381 16.0453H211.246V16.7814H214.224V16.0453H214.102C213.893 16.0453 213.857 15.9717 213.857 15.6772V7.60423C213.857 6.27918 213.526 5.76389 212.239 5.76389C211.394 5.76389 210.916 6.02153 210.572 6.83129V2.14453L207.876 2.36537V3.10151H208.158C208.342 3.10151 208.452 3.21193 208.452 3.61681V15.6282C208.452 15.9594 208.391 16.0576 208.158 16.0576H208.06V16.7937V16.7937ZM151.885 16.9164C154.238 16.9164 154.569 14.9534 154.569 11.3463C154.569 7.72692 154.214 5.77615 151.885 5.77615C149.557 5.77615 149.201 7.72692 149.201 11.3463C149.201 14.9534 149.532 16.9164 151.885 16.9164ZM169.691 16.7937H172.522V16.0576H172.387C172.228 16.0576 172.228 15.9962 172.228 15.7754V8.3281C172.228 7.43247 172.228 7.11347 172.816 7.11347C173.22 7.11347 173.245 7.2607 173.245 8.00911V15.714C173.245 15.9962 173.135 16.0453 173.024 16.0453H172.89V16.7814H175.867V16.0453H175.745C175.537 16.0453 175.488 15.9717 175.488 15.6772V7.60423C175.488 6.27918 175.169 5.76389 173.87 5.76389C173.049 5.76389 172.546 6.02153 172.24 6.83129V5.76389L169.52 5.97246V6.7086H169.814C169.985 6.7086 170.108 6.83129 170.108 7.24843V15.6282C170.108 15.9594 170.034 16.0576 169.814 16.0576H169.703L169.691 16.7937ZM195.781 16.9164C196.762 16.9164 197.117 16.4379 197.325 15.8735C197.509 16.7201 197.717 16.9164 198.808 16.9164C200.095 16.9164 200.266 16.1435 200.242 14.6344H199.629C199.629 15.7263 199.605 15.8367 199.409 15.8367C199.225 15.8367 199.225 15.7508 199.225 15.1374V7.98457C199.225 6.53683 198.747 5.77615 197.056 5.77615C195.72 5.77615 194.384 6.18103 194.458 7.62877C194.494 8.2913 194.752 8.99063 195.45 8.95382C196.088 8.91702 196.382 8.57349 196.382 8.03365C196.382 7.66558 196.1 7.05213 195.671 6.72087C195.83 6.64725 196.088 6.57364 196.516 6.57364C196.994 6.57364 197.08 6.94171 197.08 7.64104V9.64089C194.642 10.4752 194.127 10.8064 194.127 13.8737C194.139 16.0944 194.678 16.9164 195.781 16.9164ZM191.566 16.9164C193.379 16.9164 193.808 16.3643 193.71 13.3461H192.963C192.963 15.7386 192.889 15.9226 192.044 15.9226C191.039 15.9226 191.039 15.4809 191.039 11.3831V11.0518H193.98C193.98 6.91717 193.526 5.77615 191.578 5.77615C189.813 5.77615 188.894 6.8681 188.894 11.4199C188.882 15.7631 189.58 16.9409 191.566 16.9164ZM167.142 16.9164C168.931 16.9164 169.422 16.3643 169.348 13.3461H168.6C168.6 15.7386 168.49 15.9226 167.62 15.9226C166.529 15.9226 166.591 15.4809 166.591 11.3831V11.0518H169.434C169.434 6.91717 169.054 5.77615 167.13 5.77615C165.353 5.77615 164.434 6.8681 164.434 11.4199C164.434 15.7631 165.132 16.9409 167.142 16.9164ZM200.646 16.7937H203.587V16.0576H203.367C203.183 16.0576 203.109 15.9594 203.109 15.665V2.14453L200.377 2.36537V3.10151H200.695C200.879 3.10151 200.953 3.17513 200.953 3.46958V15.7018C200.953 15.9717 200.928 16.0576 200.806 16.0576H200.659L200.646 16.7937ZM179.176 16.9164C180.524 16.9164 181.223 16.033 181.223 14.708C181.223 11.6039 178.404 9.80038 178.404 7.56743C178.404 6.88036 178.649 6.68406 179.127 6.68406C179.826 6.68406 179.936 6.97852 180.059 8.02138L180.169 9.05197H180.978V5.84977H180.34C180.304 6.25464 180.218 6.40187 180.169 6.3528C179.973 6.11968 179.495 5.76389 178.698 5.76389C177.522 5.76389 176.492 6.29145 176.492 8.04592C176.492 10.7696 179.286 12.8431 179.286 14.9288C179.286 15.8245 179.09 15.9717 178.441 15.9717C177.804 15.9717 177.632 15.6772 177.51 14.3154L177.412 13.4075H176.566V16.7814H177.301C177.363 16.4134 177.485 16.1803 177.595 16.2784C177.84 16.5729 178.098 16.9164 179.176 16.9164ZM204.139 14.5117C204.139 16.2539 204.396 16.9164 206.124 16.9164C207.337 16.9164 207.619 16.4379 207.619 15.1006V13.2725H206.884V15.1865C206.884 15.8245 206.823 15.8981 206.59 15.8981C206.345 15.8981 206.296 15.8245 206.296 15.2601V6.68406H207.631V5.84977H206.308V3.08924H205.56C205.021 5.54304 204.568 5.84977 203.845 5.84977H203.649V6.65952H204.139V14.5117ZM151.885 15.9717C151.37 15.9717 151.37 15.6772 151.37 11.334C151.37 6.97852 151.37 6.68406 151.885 6.68406C152.4 6.68406 152.4 6.97852 152.4 11.334C152.4 15.7018 152.4 15.9717 151.885 15.9717ZM176.125 6.31599C177.963 4.95413 178.331 3.92353 177.718 2.97882C177.387 2.46352 176.627 2.13226 176.076 2.58621C175.414 3.13832 175.573 4.0953 176.811 4.64741C176.59 4.90505 176.076 5.40808 175.647 5.82523L176.125 6.31599ZM196.664 15.6282C196.222 15.6282 196.222 15.1742 196.222 13.7142C196.222 11.0641 196.222 10.7083 197.105 10.2298V14.7693C197.105 15.4687 197.007 15.6282 196.664 15.6282ZM166.591 10.2789C166.627 6.83129 166.689 6.67179 167.167 6.67179C167.62 6.67179 167.596 6.85582 167.596 10.2789H166.591ZM191.039 10.2789C191.1 6.83129 191.124 6.67179 191.602 6.67179C192.08 6.67179 192.007 6.85582 192.007 10.2789H191.039Z" fill="#505050"/>
</g>
<path d="M259.506 14.5847H256.176V9.51647C256.176 8.98358 255.782 8.64343 255.306 8.64343C254.853 8.64343 254.308 8.99491 254.308 9.51647V14.5847H251.315V6.51184L250.352 5.85422C251.454 5.50274 253.299 4.73173 254.308 4.19884V8.43934C254.703 7.96313 255.689 7.35087 256.919 7.35087C258.485 7.35087 259.17 8.34864 259.17 9.53915V13.825C259.17 13.9384 259.274 14.1992 259.506 14.5847ZM293.851 14.5847H290.521V9.51647C290.521 8.98358 290.126 8.64343 289.65 8.64343C289.198 8.64343 288.641 8.99491 288.641 9.51647V14.5847H285.647V6.51184L284.684 5.85422C285.787 5.50274 287.631 4.73173 288.641 4.19884V8.43934C289.035 7.96313 290.022 7.35087 291.252 7.35087C292.818 7.35087 293.491 8.34864 293.491 9.53915V13.825C293.503 13.9384 293.619 14.1992 293.851 14.5847ZM266.793 13.3828V13.893C266.131 14.4373 265.4 14.8908 263.822 14.8908C261.339 14.8908 259.819 13.2921 259.819 11.3193C259.819 8.97224 261.386 7.36221 263.672 7.36221C265.934 7.36221 266.793 8.84752 266.793 10.7297H262.651C262.825 12.8953 264.089 13.8704 265.226 13.8704C265.783 13.8704 266.398 13.6889 266.793 13.3828ZM263.521 10.2988C264.182 10.2988 264.263 10.1174 264.263 9.5845C264.263 9.17633 264.182 8.16722 263.521 8.16722C262.859 8.16722 262.778 9.17633 262.778 9.5845C262.778 10.1174 262.859 10.2988 263.521 10.2988ZM319.969 13.3715V13.8817C319.307 14.4259 318.576 14.8795 316.998 14.8795C314.515 14.8795 312.995 13.2808 312.995 11.3079C312.995 8.9609 314.562 7.35087 316.847 7.35087C319.11 7.35087 319.969 8.83618 319.969 10.7183H315.826C316 12.8839 317.265 13.859 318.402 13.859C318.959 13.8704 319.586 13.6889 319.969 13.3715ZM316.708 10.2988C317.37 10.2988 317.451 10.1174 317.451 9.5845C317.451 9.17633 317.37 8.16722 316.708 8.16722C316.047 8.16722 315.966 9.17633 315.966 9.5845C315.966 10.1174 316.035 10.2988 316.708 10.2988ZM275.24 13.3148L275.565 13.3828C275.414 13.9724 274.973 14.8795 273.557 14.8795C272.374 14.8795 272.037 14.1765 271.794 13.4395C271.585 14.1198 270.773 14.8795 269.229 14.8795C267.849 14.8795 267.094 14.2899 267.094 13.1787C267.094 11.9429 268.348 11.0471 271.469 10.1514V8.84752C271.469 8.17856 271.097 7.94046 270.68 7.94046C270.308 7.94046 269.717 8.32596 269.717 8.92689C269.717 9.21034 269.775 9.43711 269.81 9.72056C269.81 10.0947 269.369 10.6503 268.696 10.6503C267.953 10.6503 267.593 10.1287 267.593 9.52781C267.593 8.54139 268.545 7.33953 271.039 7.33953C273.627 7.33953 274.451 8.65477 274.451 9.91331V13.2468C274.451 13.4508 274.532 13.6549 274.764 13.6549C274.996 13.6776 275.135 13.5642 275.24 13.3148ZM271.492 13.0653V10.5823C270.448 10.9904 270.076 11.9996 270.076 12.7706C270.076 13.3942 270.274 13.6776 270.761 13.6776C271.19 13.6889 271.492 13.4282 271.492 13.0653ZM279.521 14.5847H276.087V6.51184L275.17 5.85422C276.214 5.50274 278.14 4.73173 279.103 4.19884V13.8137C279.092 13.9271 279.231 14.1878 279.521 14.5847ZM298.364 14.5847H294.93V6.51184L294.013 5.85422C295.057 5.50274 296.983 4.73173 297.946 4.19884V13.8137C297.935 13.9271 298.086 14.1878 298.364 14.5847ZM284.684 13.7456V14.2559C284.185 14.664 283.35 14.8908 282.457 14.8908C280.983 14.8908 280.461 13.8363 280.461 12.952V8.20124H279.753L283.501 5.04921V7.64566H284.684V8.20124H283.501V13.3488C283.501 13.757 283.756 13.9497 284.058 13.9497C284.232 13.9384 284.557 13.859 284.684 13.7456ZM301.23 7.24883C300.383 7.24883 299.698 6.56853 299.698 5.71816C299.698 4.86779 300.371 4.1875 301.23 4.1875C302.077 4.1875 302.762 4.86779 302.762 5.71816C302.762 6.56853 302.077 7.24883 301.23 7.24883ZM303.237 14.5847H299.722V9.4938L298.759 8.83618C299.861 8.48469 301.717 7.71369 302.727 7.1808V13.8023C302.727 13.9384 302.901 14.1992 303.237 14.5847ZM312.763 14.5847H309.329V9.4938C309.329 8.9609 308.934 8.62075 308.459 8.62075C308.006 8.62075 307.461 8.97224 307.461 9.4938V14.5847H304.467V9.4938L303.504 8.83618C304.606 8.48469 306.37 7.71369 307.38 7.1808V8.5754C307.878 7.94046 308.83 7.31685 310.071 7.31685C311.638 7.31685 312.311 8.31462 312.311 9.50514V13.8023C312.322 13.9271 312.473 14.1878 312.763 14.5847Z" fill="#505050"/>
<path fill-rule="evenodd" clip-rule="evenodd" d="M375.412 0.112475C375.939 -0.0191748 376.489 -0.0262919 377.027 0.0448704C377.627 0.126707 378.212 0.322397 378.722 0.649743C378.722 1.11586 378.722 1.58198 378.722 2.04809C378.406 1.8097 378.065 1.59621 377.695 1.44677C377.207 1.24396 376.672 1.15856 376.144 1.1977C375.893 1.21904 375.638 1.27242 375.415 1.39695C375.272 1.47879 375.142 1.59265 375.067 1.73854C374.963 1.92356 374.952 2.14415 374.988 2.35052C375.02 2.53199 375.121 2.69923 375.261 2.81664C375.448 2.9732 375.674 3.0657 375.9 3.1511C376.374 3.32189 376.848 3.49268 377.322 3.66347C377.728 3.81291 378.126 4.0086 378.453 4.29681C378.762 4.56723 378.981 4.93728 379.071 5.33935C379.16 5.75209 379.171 6.18618 379.053 6.59536C378.948 6.9654 378.729 7.29986 378.439 7.54893C378.126 7.81935 377.742 7.99725 377.347 8.10043C376.805 8.24276 376.234 8.26055 375.681 8.20362C374.988 8.12534 374.291 7.92965 373.71 7.5347C373.71 7.06147 373.71 6.58824 373.71 6.11145C374.406 6.67007 375.282 7.02233 376.184 7.033C376.564 7.04012 376.959 7.00098 377.304 6.82663C377.498 6.72701 377.667 6.56689 377.746 6.36052C377.835 6.13636 377.832 5.88018 377.76 5.65246C377.685 5.42474 377.501 5.25395 377.297 5.13653C376.941 4.93016 376.546 4.81275 376.166 4.67398C375.702 4.50319 375.221 4.36086 374.79 4.11535C374.464 3.93389 374.162 3.68838 373.961 3.36815C373.688 2.94117 373.613 2.41457 373.659 1.91999C373.706 1.45388 373.929 1.00556 374.281 0.69245C374.593 0.407801 374.995 0.219219 375.412 0.112475Z" fill="#505050"/>
<path fill-rule="evenodd" clip-rule="evenodd" d="M407.221 0.464125C407.77 0.11543 408.435 -0.0162161 409.081 0.00157451C409.885 0.00869074 410.697 0.211495 411.372 0.649143C411.372 1.11526 411.372 1.57782 411.372 2.04393C411.081 1.82688 410.772 1.62763 410.438 1.48175C409.86 1.22557 409.207 1.12237 408.578 1.21844C408.244 1.27537 407.885 1.42126 407.717 1.73437C407.541 2.0724 407.595 2.5385 407.893 2.79469C408.122 2.9975 408.417 3.09713 408.7 3.20032C409.167 3.3711 409.638 3.53478 410.101 3.70912C410.514 3.8728 410.919 4.08985 411.228 4.4172C411.512 4.71252 411.691 5.09679 411.753 5.49885C411.817 5.9365 411.799 6.39906 411.623 6.8118C411.476 7.16405 411.218 7.4665 410.902 7.68354C410.532 7.94328 410.094 8.08916 409.652 8.16744C409.034 8.26707 408.399 8.2386 407.788 8.11051C407.282 8.00021 406.783 7.81875 406.352 7.52342C406.356 7.05019 406.352 6.57697 406.352 6.10374C406.898 6.53783 407.548 6.8545 408.241 6.97192C408.542 7.02529 408.848 7.03952 409.153 7.02173C409.462 6.99682 409.778 6.93633 410.043 6.7691C410.248 6.64101 410.399 6.43108 410.442 6.19269C410.492 5.91516 410.446 5.60205 410.255 5.385C410.086 5.18931 409.853 5.07545 409.623 4.97226C409.246 4.81214 408.855 4.69117 408.471 4.54884C408.097 4.41719 407.724 4.28554 407.386 4.08273C407.074 3.90127 406.79 3.65576 406.596 3.34976C406.406 3.04376 406.313 2.68795 406.298 2.33213C406.277 2.00835 406.32 1.67744 406.446 1.37856C406.593 0.997845 406.876 0.68117 407.221 0.464125Z" fill="#505050"/>
<path fill-rule="evenodd" clip-rule="evenodd" d="M415.975 0.199976C416.355 0.0647676 416.761 -0.00283566 417.167 0.000722453C417.993 -0.01351 418.836 0.182183 419.54 0.619831C419.569 0.630505 419.58 0.662532 419.576 0.690997C419.576 1.13932 419.576 1.5912 419.576 2.03953C419.253 1.79402 418.905 1.57697 418.528 1.42753C418.054 1.23539 417.533 1.15355 417.023 1.18913C416.765 1.21048 416.499 1.26385 416.273 1.39195C416.107 1.48446 415.967 1.62678 415.896 1.80113C415.759 2.14271 415.831 2.5768 416.129 2.81519C416.452 3.07493 416.865 3.17455 417.246 3.32044C417.691 3.48767 418.147 3.62644 418.581 3.82213C418.98 4.00715 419.357 4.26334 419.616 4.62271C419.896 5.00698 420.007 5.48734 420 5.95345C420.007 6.36975 419.896 6.79316 419.662 7.14186C419.425 7.49411 419.073 7.76097 418.686 7.9282C418.269 8.11322 417.817 8.19862 417.364 8.21997C416.858 8.24487 416.348 8.19506 415.86 8.07408C415.407 7.96022 414.962 7.793 414.578 7.52258C414.563 7.04935 414.574 6.57256 414.571 6.09577C415.271 6.6544 416.147 7.01021 417.052 7.02088C417.443 7.028 417.849 6.98886 418.197 6.79672C418.377 6.69709 418.535 6.54409 418.61 6.3484C418.7 6.12068 418.7 5.85738 418.621 5.6261C418.546 5.40905 418.366 5.24182 418.168 5.1244C417.809 4.91448 417.404 4.7935 417.012 4.65118C416.549 4.48039 416.072 4.33806 415.641 4.09255C415.296 3.89686 414.98 3.63 414.782 3.28487C414.567 2.91482 414.495 2.47717 414.51 2.05375C414.524 1.6588 414.65 1.26742 414.89 0.950744C415.152 0.605607 415.551 0.352975 415.975 0.199976Z" fill="#505050"/>
<path fill-rule="evenodd" clip-rule="evenodd" d="M387.871 0.0078125C389.71 1.74417 391.544 3.4841 393.386 5.22046C393.39 3.52324 393.386 1.82957 393.386 0.132349C393.824 0.132349 394.262 0.132349 394.701 0.132349C394.701 2.83651 394.701 5.53713 394.701 8.24129C393.462 7.04577 392.223 5.8538 390.984 4.66183C390.385 4.08897 389.792 3.509 389.189 2.93971C389.185 4.66539 389.192 6.38751 389.185 8.11319C388.747 8.10964 388.309 8.11319 387.871 8.11319C387.871 5.40903 387.871 2.70842 387.871 0.0078125Z" fill="#505050"/>
<path fill-rule="evenodd" clip-rule="evenodd" d="M355.363 0.129698C356.067 0.129698 356.771 0.129698 357.475 0.129698C357.97 0.133256 358.466 0.108346 358.958 0.193741C359.421 0.27202 359.888 0.435699 360.247 0.745255C360.541 0.994323 360.746 1.33946 360.832 1.7095C360.929 2.1258 360.929 2.57413 360.792 2.98331C360.649 3.42452 360.322 3.81235 359.884 3.98314C359.956 4.0294 360.042 4.0543 360.117 4.09344C360.519 4.29625 360.835 4.64851 361.008 5.06125C361.141 5.3708 361.18 5.71594 361.151 6.0504C361.119 6.48093 360.979 6.91503 360.699 7.25305C360.383 7.64088 359.916 7.87927 359.435 7.99313C359.022 8.09632 358.591 8.11055 358.168 8.10343C357.234 8.10343 356.297 8.10343 355.363 8.10343C355.363 5.44908 355.363 2.78761 355.363 0.129698ZM356.692 1.30388C356.692 2.02974 356.688 2.75559 356.695 3.48145C357.234 3.47789 357.773 3.48144 358.311 3.47788C358.652 3.46009 359.015 3.39605 359.277 3.16477C359.471 2.99754 359.568 2.74136 359.582 2.49229C359.6 2.21832 359.557 1.91943 359.374 1.70239C359.212 1.50669 358.965 1.40351 358.721 1.35725C358.444 1.30032 358.16 1.30388 357.884 1.30388C357.485 1.30388 357.087 1.30388 356.692 1.30388ZM356.692 4.60581C356.692 5.38148 356.692 6.15714 356.692 6.93281C357.263 6.93281 357.837 6.93281 358.408 6.93281C358.731 6.92925 359.072 6.87588 359.349 6.69797C359.586 6.54853 359.747 6.29947 359.798 6.02549C359.852 5.72661 359.819 5.40282 359.658 5.14308C359.528 4.92959 359.313 4.78015 359.076 4.70188C358.861 4.62715 358.634 4.59869 358.408 4.60225C357.834 4.60581 357.263 4.60225 356.692 4.60581Z" fill="#505050"/>
<path fill-rule="evenodd" clip-rule="evenodd" d="M364.072 0.132812C364.528 0.132812 364.981 0.132812 365.437 0.132812C365.437 1.50624 365.437 2.87968 365.437 4.24955C365.437 4.73346 365.419 5.22448 365.537 5.69771C365.631 6.08198 365.824 6.45914 366.151 6.70109C366.474 6.93948 366.887 7.02844 367.282 7.02844C367.684 7.032 368.108 6.9466 368.435 6.69754C368.708 6.49472 368.891 6.19229 368.995 5.87561C369.117 5.49845 369.149 5.09994 369.146 4.70499C369.146 3.18212 369.146 1.65925 369.146 0.136374C369.602 0.136374 370.054 0.136374 370.51 0.136374C370.51 1.72329 370.51 3.31021 370.51 4.89357C370.521 5.54826 370.41 6.21719 370.09 6.79716C369.817 7.30242 369.365 7.7116 368.833 7.94288C368.23 8.20974 367.555 8.27733 366.902 8.22396C366.446 8.18482 365.99 8.07452 365.584 7.85747C365.286 7.70092 365.017 7.49099 364.801 7.2348C364.543 6.93237 364.359 6.57301 364.244 6.1994C364.112 5.76887 364.065 5.31698 364.069 4.86866C364.072 3.28886 364.072 1.71262 364.072 0.132812Z" fill="#505050"/>
<path fill-rule="evenodd" clip-rule="evenodd" d="M382.635 0.132812C383.087 0.136371 383.543 0.132812 383.996 0.132812C383.999 2.79072 383.992 5.44864 383.999 8.10655C383.543 8.11366 383.087 8.10655 382.635 8.11011C382.631 5.4522 382.628 2.79072 382.635 0.132812Z" fill="#505050"/>
<path fill-rule="evenodd" clip-rule="evenodd" d="M398.331 0.132812C399.954 0.136371 401.574 0.132816 403.197 0.136374C403.197 0.538441 403.197 0.936952 403.197 1.33902C402.019 1.33902 400.845 1.33902 399.667 1.33902C399.667 1.97592 399.667 2.61282 399.667 3.24616C400.723 3.24616 401.775 3.24616 402.831 3.24616C402.831 3.64111 402.831 4.03607 402.831 4.43102C401.775 4.43102 400.723 4.43102 399.667 4.43102C399.667 5.25294 399.667 6.07487 399.667 6.89679C400.841 6.89679 402.019 6.89679 403.193 6.89679C403.193 7.30242 403.193 7.70803 403.193 8.11366C401.57 8.11366 399.951 8.1101 398.328 8.11366C398.321 5.95744 398.328 3.80123 398.324 1.64501C398.328 1.13976 398.324 0.634507 398.331 0.132812Z" fill="#505050"/>
<path fill-rule="evenodd" clip-rule="evenodd" d="M365.974 12.1172C367.798 13.8286 369.622 15.5401 371.45 17.2515C371.454 15.5828 371.45 13.914 371.45 12.2453C371.885 12.2453 372.319 12.2453 372.754 12.2453C372.754 14.9032 372.754 17.5611 372.754 20.2155C370.926 18.4791 369.105 16.7356 367.281 14.9993C367.281 16.6965 367.281 18.3937 367.281 20.0909C366.843 20.0909 366.409 20.0909 365.971 20.0909C365.974 17.433 365.971 14.7751 365.974 12.1172Z" fill="#505050"/>
<path fill-rule="evenodd" clip-rule="evenodd" d="M377.397 12.3986C377.914 12.1638 378.492 12.089 379.056 12.1139C379.81 12.1424 380.564 12.3417 381.203 12.7473C381.203 13.2063 381.203 13.6688 381.203 14.1278C380.884 13.8894 380.543 13.6759 380.173 13.5265C379.681 13.3273 379.142 13.2454 378.614 13.2881C378.363 13.313 378.108 13.37 377.893 13.498C377.727 13.5941 377.591 13.74 377.526 13.9215C377.422 14.2239 377.472 14.5975 377.713 14.8252C377.9 15.0102 378.144 15.1099 378.385 15.2024C378.866 15.3767 379.343 15.544 379.824 15.7183C380.205 15.8571 380.578 16.035 380.891 16.2983C381.196 16.5509 381.426 16.896 381.526 17.2803C381.627 17.6682 381.648 18.0809 381.562 18.4723C381.483 18.853 381.282 19.2053 380.995 19.4686C380.693 19.7532 380.313 19.9418 379.914 20.0592C379.419 20.2051 378.894 20.23 378.381 20.2015C377.849 20.1659 377.322 20.0557 376.826 19.8493C376.614 19.7568 376.406 19.6571 376.219 19.5219C376.223 19.0558 376.219 18.5897 376.223 18.1236C376.92 18.6787 377.796 19.0273 378.693 19.0309C379.078 19.0345 379.476 18.9953 379.821 18.8103C380.018 18.7036 380.187 18.5257 380.252 18.3086C380.316 18.0916 380.313 17.8532 380.23 17.6397C380.144 17.4191 379.95 17.259 379.745 17.1451C379.397 16.953 379.009 16.8391 378.636 16.7003C378.209 16.5438 377.771 16.4157 377.368 16.1987C377.006 16.0101 376.672 15.7503 376.453 15.4016C376.234 15.0529 376.148 14.6331 376.155 14.2275C376.151 13.8396 376.262 13.4518 376.485 13.1316C376.711 12.8078 377.038 12.5623 377.397 12.3986Z" fill="#505050"/>
<path fill-rule="evenodd" clip-rule="evenodd" d="M360.746 12.2461C361.202 12.2461 361.655 12.2461 362.111 12.2461C362.111 14.8613 362.111 17.4765 362.111 20.0917C361.655 20.0917 361.202 20.0917 360.746 20.0917C360.746 17.4765 360.746 14.8613 360.746 12.2461Z" fill="#505050"/>
<path fill-rule="evenodd" clip-rule="evenodd" d="M385.109 12.2461C385.561 12.2461 386.014 12.2461 386.466 12.2461C386.466 14.8613 386.466 17.4765 386.466 20.0917C386.014 20.0917 385.561 20.0917 385.109 20.0917C385.109 17.4765 385.105 14.8613 385.109 12.2461Z" fill="#505050"/>
<path fill-rule="evenodd" clip-rule="evenodd" d="M390.412 12.2461C391.457 12.2461 392.505 12.2461 393.55 12.2461C394.362 12.2568 395.191 12.4667 395.856 12.9435C396.416 13.3384 396.836 13.9184 397.069 14.5589C397.263 15.089 397.342 15.6583 397.339 16.2205C397.331 17.0246 397.145 17.8466 396.692 18.5262C396.319 19.0955 395.759 19.5402 395.123 19.7929C394.624 19.9921 394.089 20.0846 393.554 20.0917C392.505 20.0917 391.461 20.0917 390.412 20.0917C390.412 17.4765 390.412 14.8613 390.412 12.2461ZM391.762 13.4238C391.762 15.2491 391.762 17.0744 391.762 18.8998C392.189 18.8998 392.62 18.8998 393.048 18.8998C393.31 18.8998 393.576 18.9104 393.838 18.8749C394.337 18.8179 394.832 18.6293 395.198 18.2807C395.525 17.9782 395.741 17.5726 395.852 17.1492C395.963 16.7293 395.992 16.2917 395.963 15.8611C395.938 15.4733 395.856 15.0855 395.694 14.7332C395.536 14.3916 395.295 14.0856 394.987 13.8686C394.631 13.6124 394.197 13.4808 393.762 13.4416C393.5 13.4131 393.238 13.4274 392.976 13.4238C392.574 13.4238 392.168 13.4238 391.762 13.4238Z" fill="#505050"/>
<path fill-rule="evenodd" clip-rule="evenodd" d="M400.187 12.2461C401.799 12.2461 403.412 12.2461 405.024 12.2461C405.027 12.641 405.024 13.0324 405.024 13.4274C403.857 13.4274 402.686 13.4274 401.519 13.4274C401.519 14.0572 401.516 14.6834 401.519 15.3132C402.564 15.3132 403.613 15.3132 404.658 15.3132C404.658 15.701 404.654 16.0853 404.658 16.4731C403.609 16.4802 402.564 16.4731 401.516 16.4767C401.516 17.2879 401.516 18.0956 401.516 18.9069C402.683 18.9069 403.853 18.9069 405.02 18.9069C405.02 19.3054 405.02 19.7003 405.02 20.0988C403.408 20.0988 401.796 20.0988 400.184 20.0988C400.187 17.4765 400.187 14.8613 400.187 12.2461Z" fill="#505050"/>
<path fill-rule="evenodd" clip-rule="evenodd" d="M409.057 12.2461C410.044 12.2461 411.035 12.2461 412.023 12.2461C412.514 12.2568 413.014 12.335 413.459 12.5485C413.811 12.7158 414.119 12.9755 414.324 13.3064C414.568 13.6942 414.665 14.1604 414.658 14.6122C414.662 15.0748 414.583 15.5551 414.342 15.9608C414.163 16.2632 413.879 16.5016 413.556 16.6475C413.322 16.7578 413.067 16.8218 412.812 16.861C413.768 17.9391 414.723 19.0136 415.674 20.0917C415.161 20.0917 414.647 20.0917 414.134 20.0917C413.207 19.0314 412.285 17.9675 411.358 16.9108C411.042 16.9108 410.726 16.9108 410.41 16.9108C410.407 17.9711 410.414 19.0314 410.407 20.0953C409.958 20.0917 409.505 20.0953 409.057 20.0953C409.057 17.4765 409.057 14.8613 409.057 12.2461ZM410.41 13.4025C410.41 14.1995 410.41 15.0001 410.41 15.7971C410.931 15.7971 411.455 15.7971 411.976 15.7971C412.331 15.79 412.705 15.6975 412.97 15.4555C413.15 15.2918 413.265 15.0641 413.301 14.8222C413.347 14.5197 413.304 14.1959 413.136 13.9362C412.978 13.6871 412.705 13.5306 412.425 13.4594C412.137 13.3847 411.839 13.4025 411.549 13.3989C411.168 13.4025 410.787 13.3989 410.41 13.4025Z" fill="#505050"/>
<defs>
<clipPath id="clip0_3088_4789">
<rect width="106.276" height="8.7611" fill="white" transform="translate(0 5.72656)"/>
</clipPath>
<clipPath id="clip1_3088_4789">
<rect width="75.9785" height="15.9497" fill="white" transform="translate(140.023 2.13281)"/>
</clipPath>
</defs>
</svg>
